<svg width="42" height="41" xmlns="http://www.w3.org/2000/svg" xmlns:xlink="http://www.w3.org/1999/xlink" overflow="hidden"><defs><clipPath id="clip0"><rect x="0" y="0" width="42" height="41"/></clipPath></defs><g clip-path="url(#clip0)"><path d="M17.9359 0.112216 24.0631 0.112216C24.2404 0.120322 24.3838 0.259415 24.3973 0.436389L25.9569 5.51979C26.8083 5.74976 27.6307 6.0764 28.4078 6.49331L33.1981 3.89792C33.3095 3.78952 33.5324 3.89792 33.6438 4.00631L37.9885 8.1212C38.0692 8.28974 38.1074 8.47545 38.0999 8.66216L35.4282 13.308C35.7624 14.0647 36.0966 14.8225 36.4318 15.6876L41.6678 17.0927C41.8906 17.2011 42.002 17.3095 42.002 17.5252L42.002 23.4738C41.9889 23.6509 41.8453 23.7903 41.6678 23.7979L36.4318 25.3134C36.0976 26.0702 35.7634 26.9363 35.4282 27.693L38.1019 32.3439C38.1183 32.4968 38.0788 32.6505 37.9905 32.7764L33.6458 36.9917C33.5141 37.0779 33.3567 37.1162 33.2001 37.1001L28.4078 34.5067C27.628 34.8309 26.7368 35.156 25.9569 35.4802L24.3973 40.5636C24.3838 40.7406 24.2404 40.8797 24.0631 40.8878L17.9359 40.8878C17.7131 40.8878 17.6017 40.7794 17.4903 40.5636L16.0421 35.4802C15.1508 35.156 14.371 34.8309 13.5912 34.5067L8.80085 37.1031C8.64427 37.1192 8.48693 37.0809 8.35524 36.9947L4.01453 32.7764C3.90313 32.668 3.79172 32.4523 3.90313 32.3439L6.5768 27.693C6.14876 26.9426 5.81183 26.1437 5.57317 25.3134L0.33421 23.7979C0.15707 23.7903 0.0135535 23.6516 4.30712e-09 23.4748L0 17.5262C0 17.3095 0.111403 17.2021 0.33421 17.0937L5.57016 15.6886C5.789 14.8514 6.12699 14.05 6.57379 13.309L3.89911 8.65714C3.78771 8.54875 3.89911 8.33297 4.01051 8.22458L8.24383 4.00932C8.46664 3.90093 8.68945 3.79253 8.80085 3.90093L13.5912 6.49632C14.3596 6.06082 15.1843 5.73323 16.0421 5.5228L17.4903 0.436389C17.6017 0.220608 17.7131 0.112216 17.9359 0.112216ZM20.9468 10.4958C26.5507 10.3933 31.1819 14.8424 31.3043 20.4458 31.1557 26.137 26.4216 30.6301 20.7304 30.4815 15.2482 30.3384 10.8379 25.928 10.6947 20.4458 10.7637 14.8812 15.3307 10.4261 20.8954 10.4951 20.9115 10.4953 20.9277 10.4955 20.9438 10.4958Z" fill="#1F416E" fill-rule="evenodd"/><path d="M17.9359 0.112216 24.0631 0.112216C24.2404 0.120322 24.3838 0.259415 24.3973 0.436389L25.9569 5.51979C26.8083 5.74976 27.6307 6.0764 28.4078 6.49331L33.1981 3.89792C33.3095 3.78952 33.5324 3.89792 33.6438 4.00631L37.9885 8.1212C38.0692 8.28974 38.1074 8.47545 38.0999 8.66216L35.4282 13.308C35.7624 14.0647 36.0966 14.8225 36.4318 15.6876L41.6678 17.0927C41.8906 17.2011 42.002 17.3095 42.002 17.5252L42.002 23.4738C41.9889 23.6509 41.8453 23.7903 41.6678 23.7979L36.4318 25.3134C36.0976 26.0702 35.7634 26.9363 35.4282 27.693L38.1019 32.3439C38.1183 32.4968 38.0788 32.6505 37.9905 32.7764L33.6458 36.9917C33.5141 37.0779 33.3567 37.1162 33.2001 37.1001L28.4078 34.5067C27.628 34.8309 26.7368 35.156 25.9569 35.4802L24.3973 40.5636C24.3838 40.7406 24.2404 40.8797 24.0631 40.8878L17.9359 40.8878C17.7131 40.8878 17.6017 40.7794 17.4903 40.5636L16.0421 35.4802C15.1508 35.156 14.371 34.8309 13.5912 34.5067L8.80085 37.1031C8.64427 37.1192 8.48693 37.0809 8.35524 36.9947L4.01453 32.7764C3.90313 32.668 3.79172 32.4523 3.90313 32.3439L6.5768 27.693C6.14876 26.9426 5.81183 26.1437 5.57317 25.3134L0.33421 23.7979C0.15707 23.7903 0.0135535 23.6516 4.30712e-09 23.4748L0 17.5262C0 17.3095 0.111403 17.2021 0.33421 17.0937L5.57016 15.6886C5.789 14.8514 6.12699 14.05 6.57379 13.309L3.89911 8.65714C3.78771 8.54875 3.89911 8.33297 4.01051 8.22458L8.24383 4.00932C8.46664 3.90093 8.68945 3.79253 8.80085 3.90093L13.5912 6.49632C14.3596 6.06082 15.1843 5.73323 16.0421 5.5228L17.4903 0.436389C17.6017 0.220608 17.7131 0.112216 17.9359 0.112216ZM20.9468 10.4958C26.5507 10.3933 31.1819 14.8424 31.3043 20.4458 31.1557 26.137 26.4216 30.6301 20.7304 30.4815 15.2482 30.3384 10.8379 25.928 10.6947 20.4458 10.7637 14.8812 15.3307 10.4261 20.8954 10.4951 20.9115 10.4953 20.9277 10.4955 20.9438 10.4958Z" fill="#1F416E" fill-rule="evenodd"/><path d="M23.2662 9.14491 28.0365 9.14491C28.1747 9.15115 28.2864 9.25982 28.2964 9.39782L29.5108 13.3551C30.1732 13.5342 30.813 13.7884 31.4177 14.1129L35.1472 12.0926C35.2335 12.0083 35.4071 12.0926 35.4945 12.1769L38.8767 15.3765C38.9393 15.5075 38.9689 15.6519 38.963 15.797L36.8815 19.4171C37.1414 20.0062 37.4014 20.5963 37.6623 21.2698L41.7381 22.3647C41.9117 22.4491 41.998 22.5334 41.998 22.702L41.998 27.3327C41.9884 27.4709 41.8765 27.5798 41.7381 27.5856L37.6623 28.7649C37.4024 29.354 37.1424 30.0275 36.8815 30.6176L38.964 34.2357C38.977 34.3549 38.9464 34.4747 38.8777 34.5729L35.4985 37.8568C35.3958 37.924 35.2732 37.9537 35.1512 37.9411L31.4217 35.9208C30.8195 36.1737 30.117 36.4226 29.5148 36.6786L28.3004 40.6359C28.2904 40.7739 28.1787 40.8825 28.0405 40.8888L23.2662 40.8888C23.0926 40.8888 23.0063 40.8045 22.9189 40.6359L21.7919 36.6786C21.0984 36.4256 20.4871 36.1767 19.885 35.9208L16.1555 37.9411C16.0335 37.9537 15.9108 37.924 15.8082 37.8568L12.426 34.5729C12.3397 34.4886 12.2523 34.32 12.3397 34.2357L14.4222 30.6156C14.0891 30.0313 13.827 29.4093 13.6414 28.7629L9.56361 27.5846C9.4252 27.5788 9.31326 27.4699 9.30367 27.3317L9.30367 22.701C9.30367 22.5324 9.38998 22.448 9.56361 22.3637L13.6394 21.2688C13.8103 20.6172 14.0739 19.9936 14.4222 19.4171L12.3387 15.797C12.2523 15.7127 12.3387 15.5441 12.425 15.4598L15.7219 12.1759C15.8955 12.0916 16.0692 12.0073 16.1555 12.0916L19.884 14.1129C20.4818 13.774 21.1235 13.519 21.7909 13.3551L22.9199 9.39782C23.0063 9.22921 23.0936 9.14491 23.2662 9.14491ZM25.6077 17.2282C29.9709 17.1475 33.5774 20.6113 33.6729 24.9742 33.4874 29.4046 29.7455 32.8459 25.315 32.6604 21.1445 32.4858 17.8034 29.1447 17.6288 24.9742 17.6825 20.6422 21.2378 17.1739 25.5698 17.2276 25.5827 17.2277 25.5957 17.2279 25.6087 17.2282Z" fill="#FFFFFF" fill-rule="evenodd"/></g></svg>