<svg width="119" height="122" xmlns="http://www.w3.org/2000/svg" xmlns:xlink="http://www.w3.org/1999/xlink" overflow="hidden"><defs><clipPath id="clip0"><rect x="0" y="0" width="119" height="122"/></clipPath></defs><g clip-path="url(#clip0)"><path d="M117.779 51.2506 118.076 68.7188C118.063 69.2257 117.672 69.6423 117.167 69.6875L102.75 74.3803C102.135 76.8179 101.244 79.1773 100.094 81.4124L107.727 94.944C108.041 95.2561 107.743 95.897 107.44 96.2195L95.933 108.806C95.4565 109.044 94.9291 109.162 94.3967 109.15L81.0078 101.755C78.8656 102.745 76.7235 103.735 74.271 104.73L70.5165 119.725C70.2189 120.366 69.916 120.689 69.2993 120.699L52.336 120.988C51.8297 120.96 51.4249 120.557 51.3948 120.051L46.8303 105.196C44.6558 104.28 42.1729 103.369 39.9964 102.453L26.8666 110.301C26.4314 110.355 25.9913 110.25 25.6278 110.004L13.3882 97.8214C13.1363 97.4501 13.0198 97.0034 13.0583 96.5564L20.2262 82.7731C19.2634 80.5656 18.2952 78.0398 17.3324 75.8354L2.76411 71.6353C2.25786 71.6074 1.85302 71.2043 1.82291 70.6981L1.52591 53.2269C1.5151 52.5912 1.81804 52.2687 2.42931 51.9409L16.8518 47.5654C17.7336 45.0092 18.6208 42.7693 19.5081 40.5333L11.8749 27.0016C11.8213 26.5562 11.9225 26.1058 12.1616 25.7261L23.978 13.1314C24.281 12.8089 24.8922 12.4801 25.206 12.7932L38.5979 20.1902C40.7171 18.9343 42.9787 17.9359 45.3346 17.2161L49.3936 2.21498C49.4065 1.70776 49.7979 1.29097 50.3034 1.2463L67.2667 0.957921C67.8834 0.947437 68.1971 1.25951 68.5163 1.8899L72.7754 16.7496C75.173 17.332 77.4745 18.2559 79.6093 19.493L92.7381 11.6451C93.0411 11.3226 93.6631 11.6294 93.9768 11.9415L106.208 23.8109C106.527 24.4413 106.846 25.0707 106.543 25.3943L99.3746 39.1776C100.653 41.3464 101.627 43.6809 102.268 46.1153L116.832 49.995C117.454 50.3029 117.768 50.6149 117.779 51.2506ZM88.3215 60.3293C88.5969 76.5273 76.181 90.0804 60.4539 90.3478 44.7269 90.6151 31.5491 77.4951 31.2738 61.2991 30.9984 45.1031 43.729 31.858 59.4531 31.5907 75.1771 31.3234 88.0462 44.1303 88.3215 60.3293Z" fill="#1F416E" fill-rule="evenodd"/><path d="M0.899406 81.8116 0.66684 68.1312C0.678154 67.7347 0.983643 67.4091 1.37859 67.3725L12.6699 63.701C13.151 61.7913 13.849 59.9429 14.7502 58.1919L8.77283 47.5905C8.52712 47.3462 8.76015 46.8441 8.99734 46.5886L18.0126 36.7315C18.3857 36.5451 18.7988 36.4528 19.2158 36.4625L29.7018 42.2561C31.3795 41.4809 33.0571 40.7018 34.9763 39.9276L37.9138 28.1855C38.1478 27.6835 38.3841 27.4309 38.8671 27.4227L52.1494 27.1969C52.5459 27.2187 52.863 27.5345 52.8865 27.931L56.4659 39.5642C58.169 40.2819 60.1136 40.9994 61.8165 41.7121L72.0996 35.5665C72.4404 35.5239 72.7851 35.6063 73.0697 35.7985L82.6524 45.3434C82.8504 45.6351 82.9417 45.9861 82.9108 46.3372L77.2972 57.1316C78.0512 58.8605 78.8095 60.8379 79.5635 62.5668L90.9731 65.8494C91.369 65.8725 91.6854 66.1876 91.7102 66.5834L91.9428 80.2639C91.9513 80.7628 91.714 81.0144 91.2353 81.2741L79.9407 84.697C79.2501 86.699 78.5553 88.4526 77.8605 90.2061L83.8368 100.804C83.8795 101.153 83.8002 101.507 83.6123 101.805L74.3594 111.661C74.1221 111.913 73.6434 112.172 73.3977 111.926L62.9117 106.136C61.2524 107.119 59.4818 107.901 57.6372 108.464L54.4553 120.213C54.4453 120.61 54.1391 120.936 53.7435 120.971L40.4612 121.197C39.9783 121.205 39.7326 120.961 39.4826 120.467L36.1437 108.83C34.2665 108.374 32.4646 107.65 30.7931 106.682L20.511 112.829C20.2737 113.081 19.7866 112.841 19.5409 112.597L9.96151 103.304C9.71156 102.809 9.46159 102.314 9.6989 102.065L15.3125 91.2705C14.3111 89.5714 13.5485 87.7424 13.0462 85.8352L1.64075 82.7942C1.15157 82.554 0.907852 82.3086 0.899406 81.8116ZM23.9682 74.702C23.7525 62.0164 33.4765 51.4007 45.7919 51.1913 58.1073 50.9819 68.43 61.2559 68.6457 73.9415 68.9604 86.455 59.0878 96.8624 46.5752 97.2079 34.2588 97.4173 24.1848 87.3866 23.9692 74.701Z" fill="#FFFFFF" fill-rule="evenodd"/></g></svg>