<svg width="120" height="118" xmlns="http://www.w3.org/2000/svg" xmlns:xlink="http://www.w3.org/1999/xlink" overflow="hidden"><defs><clipPath id="clip0"><rect x="0" y="0" width="120" height="118"/></clipPath></defs><g clip-path="url(#clip0)"><path d="M51.247 0.183 68.753 0.183C69.2606 0.20454 69.6714 0.603269 69.708 1.11L74.164 15.634C76.5957 16.2911 78.9443 17.2242 81.164 18.415L94.851 10.998C95.169 10.689 95.806 10.998 96.124 11.307L108.538 23.05C108.768 23.5314 108.877 24.0618 108.856 24.595L101.22 37.883C102.175 40.046 103.13 42.209 104.085 44.683L119.045 48.7C119.682 49.009 120 49.318 120 49.936L120 66.936C119.963 67.4427 119.553 67.8415 119.045 67.863L104.085 72.183C103.13 74.346 102.175 76.818 101.22 78.983L108.859 92.271C108.906 92.7079 108.793 93.147 108.541 93.507L96.127 105.562C95.7507 105.808 95.3012 105.917 94.854 105.871L81.167 98.455C78.939 99.382 76.392 100.309 74.167 101.236L69.711 115.76C69.6744 116.267 69.2636 116.665 68.756 116.687L51.247 116.687C50.61 116.687 50.292 116.378 49.974 115.76L45.836 101.236C43.29 100.309 41.061 99.382 38.836 98.455L25.149 105.872C24.7018 105.918 24.2523 105.809 23.876 105.563L11.459 93.51C11.141 93.201 10.822 92.583 11.141 92.274L18.78 78.983C17.5578 76.8384 16.596 74.5556 15.915 72.183L0.955 67.861C0.447049 67.8394 0.0361468 67.4401-1.66893e-08 66.933L0 49.933C0 49.315 0.318 49.006 0.955 48.697L15.915 44.683C16.5393 42.2908 17.5042 40.0007 18.78 37.883L11.141 24.596C10.823 24.287 11.141 23.669 11.459 23.36L23.559 11.308C24.196 10.999 24.832 10.69 25.151 10.999L38.838 18.416C41.0326 17.1721 43.3881 16.2363 45.838 15.635L49.973 1.11C50.292 0.492 50.61 0.183 51.247 0.183ZM59.841 29.85C76.074 29.85 89.441 42.52 89.441 58.281 89.441 74.042 76.072 87.021 59.841 87.021 43.61 87.021 30.557 74.041 30.557 58.283 30.557 42.525 43.607 29.85 59.841 29.85Z" fill="#1F416E" fill-rule="evenodd"/><path d="M79.867 117.818 66.157 117.818C65.76 117.8 65.4389 117.488 65.409 117.092L61.923 105.717C60.0179 105.203 58.178 104.472 56.439 103.539L45.716 109.347C45.467 109.589 44.968 109.347 44.716 109.105L34.994 99.905C34.8137 99.528 34.7282 99.1126 34.745 98.695L40.728 88.288C39.98 86.594 39.228 84.9 38.485 82.964L26.771 79.821C26.272 79.578 26.023 79.337 26.023 78.853L26.023 65.542C26.0516 65.1451 26.3734 64.8328 26.771 64.816L38.487 61.428C39.235 59.734 39.987 57.798 40.73 56.104L34.748 45.697C34.7111 45.3548 34.7996 45.0109 34.997 44.729L44.723 35.291C45.0185 35.0976 45.3717 35.0121 45.723 35.049L56.442 40.857C58.187 40.131 60.181 39.405 61.926 38.679L65.409 27.304C65.4389 26.9077 65.76 26.5961 66.157 26.578L79.867 26.578C80.367 26.578 80.615 26.82 80.867 27.304L84.104 38.678C86.098 39.404 87.843 40.13 89.588 40.856L100.307 35.049C100.658 35.0121 101.011 35.0976 101.307 35.291L111.023 44.729C111.272 44.971 111.523 45.455 111.272 45.697L105.293 56.104C106.25 57.7831 107.003 59.5704 107.536 61.428L119.252 64.816C119.65 64.8328 119.971 65.1451 120 65.542L120 78.853C120 79.337 119.751 79.579 119.252 79.821L107.536 82.968C107.047 84.8409 106.292 86.6339 105.293 88.292L111.276 98.698C111.525 98.94 111.276 99.424 111.027 99.666L101.554 109.105C101.054 109.347 100.554 109.589 100.308 109.347L89.589 103.539C87.8697 104.513 86.0243 105.246 84.105 105.717L80.864 117.092C80.615 117.578 80.365 117.818 79.867 117.818ZM73.137 94.585C60.424 94.585 49.954 84.662 49.954 72.32 49.954 59.978 60.423 49.811 73.136 49.811 85.6782 49.7089 95.937 59.7771 96.07 72.319 96.07 84.662 85.849 94.584 73.136 94.584Z" fill="#FFFFFF" fill-rule="evenodd"/></g></svg>